<svg data-v-423bf9ae="" xmlns="http://www.w3.org/2000/svg" viewBox="0 0 332.8571428571429 171" class="iconAbove"><!----><!----><!----><g data-v-423bf9ae="" id="03758552-78ca-4b4c-884c-c3ebe480af2c" fill="white" transform="matrix(5.714285714285714,0,0,5.714285714285714,-1.2000045733792604,90.59326798575265)"><path d="M15.18 3.70L14.59 3.70L13.69 3.70L11.87 3.70L11.87 4.52C11.87 4.76 11.98 4.90 12.22 4.96C12.46 5.01 12.66 5.05 12.80 5.08L11.35 10.18C11.31 10.32 11.27 10.49 11.24 10.65C11.20 10.82 11.17 10.99 11.14 11.17C11.07 10.81 10.98 10.47 10.88 10.18L8.90 4.13C8.86 4.00 8.79 3.89 8.68 3.81C8.57 3.72 8.44 3.70 8.27 3.70L7.71 3.70C7.56 3.70 7.43 3.75 7.32 3.84C7.21 3.92 7.14 4.02 7.10 4.13L5.11 10.18C5.05 10.33 5.01 10.49 4.97 10.67C4.93 10.84 4.89 11.03 4.84 11.23C4.82 11.03 4.77 10.84 4.75 10.67C4.70 10.50 4.66 10.33 4.62 10.18L3.18 5.07C3.26 5.04 3.35 5.03 3.42 5.01C3.49 5.00 3.54 4.98 3.57 4.97C3.60 4.96 3.63 4.96 3.64 4.96C3.88 4.90 3.99 4.76 3.99 4.52L3.99 3.70L2.27 3.70L1.27 3.70L0.70 3.70L0.21 3.70L0.21 4.52C0.21 4.76 0.32 4.90 0.56 4.96C0.57 4.96 0.62 4.97 0.71 4.98C0.81 5.00 0.95 5.03 1.12 5.05L3.84 13.82L5.53 13.82L7.77 6.90C7.80 6.82 7.83 6.73 7.85 6.62C7.88 6.52 7.91 6.40 7.94 6.29C7.97 6.40 8.01 6.52 8.04 6.62C8.06 6.72 8.09 6.82 8.12 6.90L10.33 13.82L12.03 13.82L14.76 5.05C14.92 5.03 15.05 5.00 15.15 4.98C15.25 4.97 15.29 4.96 15.30 4.96C15.54 4.90 15.65 4.76 15.65 4.52L15.65 3.70ZM18.83 6.52C18.30 6.52 17.79 6.62 17.37 6.80C16.95 6.99 16.59 7.24 16.30 7.56C16.00 7.88 15.76 8.26 15.61 8.69C15.46 9.13 15.37 9.58 15.37 10.07C15.37 10.70 15.46 11.26 15.64 11.73C15.82 12.21 16.07 12.61 16.39 12.94C16.72 13.26 17.08 13.51 17.51 13.68C17.95 13.85 18.40 13.92 18.90 13.92C19.15 13.92 19.42 13.90 19.68 13.86C19.95 13.82 20.22 13.76 20.48 13.68C20.73 13.59 20.99 13.47 21.22 13.31C21.46 13.16 21.67 12.96 21.87 12.74L21.36 12.11C21.32 12.05 21.29 12.03 21.24 12.00C21.18 11.97 21.11 11.96 21.04 11.96C20.93 11.96 20.83 11.98 20.72 12.05C20.61 12.12 20.47 12.18 20.31 12.26C20.16 12.35 19.99 12.42 19.78 12.49C19.59 12.56 19.35 12.59 19.07 12.59C18.49 12.59 18.05 12.42 17.70 12.07C17.35 11.72 17.15 11.19 17.09 10.44L21.53 10.44C21.62 10.44 21.67 10.44 21.73 10.42C21.78 10.39 21.83 10.36 21.85 10.30C21.88 10.26 21.90 10.19 21.91 10.11C21.92 10.02 21.94 9.90 21.94 9.77C21.94 9.25 21.85 8.81 21.70 8.40C21.55 7.99 21.34 7.66 21.06 7.38C20.78 7.10 20.45 6.87 20.08 6.73C19.70 6.59 19.28 6.52 18.83 6.52ZM18.86 7.76C19.11 7.76 19.33 7.81 19.53 7.90C19.73 7.98 19.88 8.09 20.01 8.25C20.13 8.40 20.23 8.57 20.29 8.76C20.34 8.96 20.38 9.17 20.38 9.39L17.14 9.39C17.22 8.88 17.40 8.47 17.68 8.19C17.96 7.91 18.35 7.76 18.86 7.76ZM29.67 8.61C29.54 8.16 29.36 7.77 29.12 7.46C28.88 7.15 28.60 6.92 28.28 6.76C27.96 6.59 27.59 6.52 27.20 6.52C26.73 6.52 26.31 6.61 25.94 6.79C25.58 6.97 25.26 7.21 24.98 7.52L24.98 3.42L23.25 3.42L22.13 3.42L22.13 4.24C22.13 4.48 22.25 4.62 22.48 4.68C22.50 4.68 22.54 4.69 22.58 4.69C22.62 4.69 22.71 4.72 22.82 4.73C22.93 4.75 23.09 4.77 23.25 4.80L23.25 11.28L23.25 13.52C24.57 13.79 25.73 13.92 26.77 13.92C27.24 13.92 27.66 13.83 28.04 13.64C28.42 13.45 28.76 13.19 29.02 12.85C29.29 12.52 29.50 12.12 29.64 11.66C29.78 11.20 29.86 10.70 29.86 10.16C29.86 9.58 29.79 9.06 29.67 8.61ZM27.96 11.26C27.87 11.56 27.75 11.82 27.61 12.01C27.47 12.21 27.29 12.36 27.08 12.46C26.87 12.56 26.64 12.60 26.38 12.60C25.91 12.60 25.44 12.56 24.98 12.47L24.98 8.74C25.20 8.46 25.44 8.25 25.69 8.09C25.94 7.94 26.25 7.87 26.61 7.87C26.84 7.87 27.03 7.91 27.22 7.99C27.40 8.08 27.55 8.20 27.68 8.39C27.80 8.57 27.90 8.81 27.97 9.10C28.04 9.39 28.07 9.74 28.07 10.16C28.07 10.58 28.04 10.95 27.96 11.26ZM31.42 3.70L30.35 3.70L30.35 4.52C30.35 4.76 30.46 4.90 30.70 4.96C30.72 4.96 30.74 4.97 30.79 4.97C30.83 4.97 30.90 5.00 31.00 5.01C31.09 5.03 31.25 5.05 31.42 5.08L31.42 12.43C31.25 12.46 31.09 12.49 31.00 12.50C30.90 12.52 30.83 12.54 30.79 12.54C30.74 12.54 30.72 12.56 30.70 12.56C30.46 12.61 30.35 12.75 30.35 12.99L30.35 13.82L31.42 13.82L37.80 13.82L37.80 12.84L37.80 12.31L37.80 11.14L37.73 11.14L37.56 11.14L36.99 11.14C36.81 11.14 36.71 11.24 36.67 11.41C36.65 11.52 36.61 11.82 36.57 12.31L33.31 12.31L33.31 9.45L36.74 9.45L36.74 7.99L33.31 7.99L33.31 5.19L36.57 5.19C36.61 5.68 36.65 5.98 36.67 6.09C36.71 6.26 36.81 6.36 36.99 6.36L37.56 6.36L37.73 6.36L37.80 6.36L37.80 5.19L37.80 4.68L37.80 3.70ZM44.80 12.54C44.79 12.54 44.73 12.53 44.65 12.52C44.56 12.50 44.42 12.47 44.27 12.45L44.27 9.27C44.27 8.86 44.21 8.48 44.10 8.15C43.99 7.81 43.79 7.52 43.57 7.27C43.34 7.03 43.06 6.83 42.74 6.69C42.41 6.55 42.03 6.48 41.61 6.48C40.45 6.48 39.45 6.87 38.63 7.63L38.95 8.18C39.00 8.26 39.06 8.34 39.14 8.40C39.23 8.46 39.34 8.48 39.45 8.48C39.59 8.48 39.72 8.46 39.83 8.39C39.94 8.32 40.07 8.26 40.21 8.18C40.35 8.09 40.52 8.02 40.70 7.95C40.88 7.88 41.12 7.85 41.40 7.85C41.79 7.85 42.08 7.97 42.28 8.20C42.48 8.44 42.59 8.79 42.59 9.28L42.59 9.70C41.78 9.70 41.08 9.77 40.53 9.91C39.98 10.05 39.55 10.23 39.21 10.44C38.88 10.65 38.64 10.89 38.50 11.16C38.36 11.42 38.29 11.70 38.29 11.97C38.29 12.29 38.35 12.57 38.44 12.81C38.54 13.05 38.70 13.26 38.88 13.43C39.06 13.59 39.28 13.71 39.54 13.79C39.79 13.87 40.07 13.92 40.38 13.92C40.63 13.92 40.87 13.89 41.08 13.85C41.29 13.80 41.48 13.75 41.66 13.66C41.85 13.58 42.04 13.48 42.21 13.36C42.39 13.23 42.56 13.09 42.74 12.92L42.90 13.43C42.94 13.58 43.01 13.69 43.11 13.73C43.20 13.79 43.33 13.80 43.50 13.80L44.09 13.80L44.27 13.80L45.15 13.80L45.15 12.98C45.15 12.74 45.04 12.60 44.80 12.54ZM42.59 11.96C42.46 12.08 42.34 12.19 42.21 12.29C42.08 12.39 41.96 12.46 41.83 12.53C41.71 12.60 41.55 12.66 41.40 12.68C41.24 12.71 41.09 12.73 40.91 12.73C40.61 12.73 40.39 12.66 40.21 12.53C40.03 12.40 39.94 12.18 39.94 11.87C39.94 11.72 39.98 11.56 40.07 11.44C40.15 11.31 40.29 11.20 40.50 11.10C40.71 11.00 40.99 10.92 41.33 10.85C41.66 10.78 42.08 10.75 42.59 10.75ZM51.34 11.47L51.17 11.47L50.58 11.47C50.40 11.47 50.30 11.56 50.26 11.73C50.25 11.80 50.23 11.97 50.18 12.49L47.67 12.49L51.07 7.99C51.13 7.91 51.20 7.81 51.24 7.70C51.28 7.59 51.30 7.48 51.30 7.35L51.30 6.64L45.85 6.64L45.85 6.72L45.85 6.72L45.85 8.93L45.92 8.93L46.09 8.93L46.66 8.93C46.84 8.93 46.94 8.83 46.98 8.67C47.00 8.61 47.03 8.44 47.07 7.97L49.32 7.97L45.88 12.50C45.79 12.60 45.75 12.70 45.71 12.81C45.67 12.92 45.65 13.01 45.65 13.09L45.65 13.82L51.17 13.82L51.20 13.82L51.39 13.82L51.39 11.47ZM55.36 6.52C54.82 6.52 54.32 6.62 53.90 6.80C53.48 6.99 53.12 7.24 52.82 7.56C52.53 7.88 52.29 8.26 52.14 8.69C51.98 9.13 51.90 9.58 51.90 10.07C51.90 10.70 51.98 11.26 52.16 11.73C52.35 12.21 52.60 12.61 52.92 12.94C53.24 13.26 53.61 13.51 54.04 13.68C54.47 13.85 54.92 13.92 55.43 13.92C55.68 13.92 55.94 13.90 56.21 13.86C56.48 13.82 56.74 13.76 57.01 13.68C57.26 13.59 57.51 13.47 57.75 13.31C57.99 13.16 58.20 12.96 58.39 12.74L57.89 12.11C57.85 12.05 57.82 12.03 57.76 12.00C57.71 11.97 57.64 11.96 57.57 11.96C57.46 11.96 57.36 11.98 57.25 12.05C57.13 12.12 56.99 12.18 56.84 12.26C56.69 12.35 56.52 12.42 56.31 12.49C56.11 12.56 55.87 12.59 55.59 12.59C55.02 12.59 54.57 12.42 54.22 12.07C53.87 11.72 53.68 11.19 53.62 10.44L58.06 10.44C58.14 10.44 58.20 10.44 58.25 10.42C58.31 10.39 58.35 10.36 58.38 10.30C58.41 10.26 58.42 10.19 58.44 10.11C58.45 10.02 58.46 9.90 58.46 9.77C58.46 9.25 58.38 8.81 58.23 8.40C58.07 7.99 57.86 7.66 57.58 7.38C57.30 7.10 56.98 6.87 56.60 6.73C56.22 6.59 55.80 6.52 55.36 6.52ZM55.38 7.76C55.64 7.76 55.86 7.81 56.06 7.90C56.25 7.98 56.41 8.09 56.53 8.25C56.66 8.40 56.76 8.57 56.81 8.76C56.87 8.96 56.91 9.17 56.91 9.39L53.66 9.39C53.75 8.88 53.93 8.47 54.21 8.19C54.49 7.91 54.88 7.76 55.38 7.76Z"></path></g><!----><g data-v-423bf9ae="" id="a9da01b8-5488-426f-80b8-17d3937156fd" transform="matrix(1.0388889736599392,0,0,1.0388889736599392,114.80749566184127,-2.6925081899434034)" stroke="none" fill="white"><path d="M83.5 3.2H16.3c-6 0-10.6 4.5-10.6 10.4v55.7c0 1.1.2 2.2.5 3.2 1.3 4.4 5.2 7.3 9.8 7.3h7.8c1.4 3.1 3.4 6 5.9 8.5 5.4 5.4 12.6 8.4 20.3 8.4s14.9-3 20.3-8.4c2.5-2.5 4.5-5.4 5.9-8.5h7.2c1.7 0 3.4-.2 4.9-1 3.9-2 5.9-5.2 5.9-9.6V13.9c0-6.2-4.4-10.7-10.7-10.7zm-1 5.4c1.9 0 3.4 1.5 3.4 3.4s-1.5 3.4-3.4 3.4-3.4-1.5-3.4-3.4 1.5-3.4 3.4-3.4zm-11.8 0c1.9 0 3.4 1.5 3.4 3.4s-1.5 3.4-3.4 3.4-3.4-1.5-3.4-3.4 1.6-3.4 3.4-3.4zM59 8.6c1.9 0 3.4 1.5 3.4 3.4s-1.5 3.4-3.4 3.4-3.4-1.5-3.4-3.4 1.5-3.4 3.4-3.4zM27 68.1c0-2 .3-4.1.8-6h8.4c-.3 2.1-.4 4.2-.4 6.3 0 1.9.1 3.8.3 5.7h-8.3c-.5-2-.8-4-.8-6zm14.5.3c0-2.1.2-4.2.5-6.3h16c.3 1.9.4 3.8.4 5.7 0 2.1-.2 4.2-.5 6.3H41.8c-.2-1.9-.3-3.9-.3-5.7zm1.7-12.1c1.2-4 2.9-7.7 5.2-11.2 1.1-.1 2.2-.1 3.3 0 2.2 3.5 3.9 7.2 5 11.2H43.2zm16.2-9.2c4.3 1.9 8 5.2 10.4 9.3h-7.1c-.8-3.3-1.9-6.4-3.3-9.3zM63.7 62h8.5c.5 2 .8 4 .8 6s-.3 4-.8 6h-8.5c.3-2.1.4-4.2.4-6.3 0-1.9-.1-3.8-.4-5.7zm-26.4-5.7h-7.1c2.5-4.1 6.2-7.4 10.6-9.3-1.5 3-2.7 6.1-3.5 9.3zm-7 23.5h6.9c.8 3.2 1.9 6.2 3.3 9.1-4.3-1.9-7.9-5.1-10.2-9.1zM48.1 91c-2.2-3.5-3.9-7.2-5-11.1h13.6c-1.2 4-2.9 7.7-5.2 11.2-1.3 0-2.3 0-3.4-.1zM59 89.2c1.5-3 2.7-6.1 3.5-9.4h7.2c-2.5 4.2-6.2 7.5-10.7 9.4zm29.4-67.3v47.4c0 2.9-1.9 4.8-4.8 4.8h-5.5c.4-1.9.6-3.9.6-6 0-7.7-3-14.9-8.4-20.3S57.7 39.4 50 39.4s-14.9 3-20.3 8.4-8.4 12.6-8.4 20.3c0 2 .2 4 .6 6h-5.5c-3 0-4.8-1.8-4.8-4.8V21.8v-.9h76.7c.1.3.1.7.1 1z"></path></g><!----></svg>